<svg width="196" height="196" viewBox="0 0 196 196" fill="none" xmlns="http://www.w3.org/2000/svg">
<path d="M98 30.68C111.315 30.68 124.33 34.6282 135.401 42.0255C146.472 49.4227 155.1 59.9366 160.196 72.2377C165.291 84.5389 166.624 98.0746 164.026 111.133C161.429 124.192 155.017 136.188 145.602 145.602C136.188 155.017 124.192 161.429 111.133 164.026C98.0747 166.624 84.5389 165.291 72.2377 160.196C59.9366 155.1 49.4227 146.472 42.0255 135.401C34.6283 124.33 30.6801 111.315 30.6801 98C30.7017 80.1523 37.8012 63.0417 50.4215 50.4214C63.0417 37.8011 80.1523 30.7016 98 30.68ZM98 30C84.5509 30 71.4038 33.9881 60.2213 41.4601C49.0388 48.932 40.323 59.5521 35.1763 71.9775C30.0295 84.4029 28.6828 98.0754 31.3066 111.266C33.9304 124.457 40.4068 136.573 49.9168 146.083C59.4268 155.593 71.5432 162.07 84.7339 164.693C97.9246 167.317 111.597 165.971 124.022 160.824C136.448 155.677 147.068 146.961 154.54 135.779C162.012 124.596 166 111.449 166 98C166 79.9653 158.836 62.6692 146.083 49.9167C133.331 37.1643 116.035 30 98 30Z" fill="url(#paint0_linear_80_5)"/>
<path d="M98.0001 0.98C117.189 0.98 135.947 6.67012 151.902 17.3308C167.856 27.9915 180.292 43.1439 187.635 60.872C194.978 78.6001 196.899 98.1076 193.156 116.928C189.412 135.748 180.172 153.035 166.604 166.603C153.035 180.172 135.748 189.412 116.928 193.156C98.1076 196.899 78.6002 194.978 60.8721 187.635C43.144 180.292 27.9916 167.856 17.3309 151.901C6.67017 135.947 0.980103 117.189 0.980103 98C1.01122 72.2783 11.2429 47.6189 29.431 29.4309C47.619 11.2428 72.2784 1.01112 98.0001 0.98ZM98.0001 0C78.6175 0 59.6703 5.74759 43.5542 16.516C27.4382 27.2843 14.8773 42.5898 7.45992 60.497C0.0425337 78.4042 -1.89829 98.1087 1.88306 117.119C5.66441 136.129 14.9981 153.591 28.7036 167.296C42.4092 181.002 59.8711 190.336 78.8813 194.117C97.8914 197.898 117.596 195.958 135.503 188.54C153.41 181.123 168.716 168.562 179.484 152.446C190.253 136.33 196 117.383 196 98C196 72.0088 185.675 47.0821 167.297 28.7035C148.918 10.325 123.991 0 98.0001 0Z" fill="url(#paint1_linear_80_5)"/>
<path d="M93.5356 11.3509L94.0163 18.7264" stroke="#FF4646" stroke-width="0.5" stroke-miterlimit="10"/>
<path d="M88.1012 11.813L89.0255 19.1516" stroke="#FF4646" stroke-width="0.5" stroke-miterlimit="10"/>
<path d="M82.7034 12.6078L84.0898 19.8725" stroke="#FF4646" stroke-width="0.5" stroke-miterlimit="10"/>
<path d="M77.3613 13.7539L79.2098 20.9076" stroke="#FF4646" stroke-width="0.5" stroke-miterlimit="10"/>
<path d="M72.1116 15.2142L74.4037 22.2571" stroke="#FF4646" stroke-width="0.5" stroke-miterlimit="10"/>
<path d="M66.9541 17.0073L69.6714 23.8837" stroke="#FF4646" stroke-width="0.5" stroke-miterlimit="10"/>
<path d="M61.9261 19.1331L65.0686 25.8247" stroke="#FF4646" stroke-width="0.5" stroke-miterlimit="10"/>
<path d="M57.046 21.5546L60.5952 28.0429" stroke="#FF4646" stroke-width="0.5" stroke-miterlimit="10"/>
<path d="M52.3138 24.2904L56.2697 30.5384" stroke="#FF4646" stroke-width="0.5" stroke-miterlimit="10"/>
<path d="M47.7666 27.322L52.1106 33.2927" stroke="#FF4646" stroke-width="0.5" stroke-miterlimit="10"/>
<path d="M43.4226 30.6123L48.1363 36.3057" stroke="#FF4646" stroke-width="0.5" stroke-miterlimit="10"/>
<path d="M39.282 34.18L44.3469 39.5776" stroke="#FF4646" stroke-width="0.5" stroke-miterlimit="10"/>
<path d="M35.3815 38.0064L40.7791 43.0713" stroke="#FF4646" stroke-width="0.5" stroke-miterlimit="10"/>
<path d="M31.74 42.0547L37.4334 46.7684" stroke="#FF4646" stroke-width="0.5" stroke-miterlimit="10"/>
<path d="M28.3572 46.3432L34.3279 50.6872" stroke="#FF4646" stroke-width="0.5" stroke-miterlimit="10"/>
<path d="M25.2333 50.8166L31.4812 54.7909" stroke="#FF4646" stroke-width="0.5" stroke-miterlimit="10"/>
<path d="M22.405 55.4933L28.8933 59.061" stroke="#FF4646" stroke-width="0.5" stroke-miterlimit="10"/>
<path d="M19.891 60.3364L26.5826 63.4789" stroke="#FF4646" stroke-width="0.5" stroke-miterlimit="10"/>
<path d="M17.6729 65.3089L24.5493 68.0447" stroke="#FF4646" stroke-width="0.5" stroke-miterlimit="10"/>
<path d="M15.7688 70.4293L22.7931 72.7215" stroke="#FF4646" stroke-width="0.5" stroke-miterlimit="10"/>
<path d="M14.1976 75.6606L21.3514 77.4906" stroke="#FF4646" stroke-width="0.5" stroke-miterlimit="10"/>
<path d="M12.9407 80.9658L20.2053 82.3522" stroke="#FF4646" stroke-width="0.5" stroke-miterlimit="10"/>
<path d="M12.0348 86.3635L19.3734 87.2877" stroke="#FF4646" stroke-width="0.5" stroke-miterlimit="10"/>
<path d="M11.4618 91.7796L18.8374 92.2417" stroke="#FF4646" stroke-width="0.5" stroke-miterlimit="10"/>
<path d="M11.24 97.2327H18.634" stroke="#FF4646" stroke-width="0.5" stroke-miterlimit="10"/>
<path d="M11.3508 102.704L18.7264 102.224" stroke="#FFA234" stroke-width="0.5" stroke-miterlimit="10"/>
<path d="M11.813 108.139L19.1516 107.215" stroke="#FFA234" stroke-width="0.5" stroke-miterlimit="10"/>
<path d="M12.6078 113.537L19.8724 112.15" stroke="#FFA234" stroke-width="0.5" stroke-miterlimit="10"/>
<path d="M13.754 118.879L20.9078 117.03" stroke="#FFA234" stroke-width="0.5" stroke-miterlimit="10"/>
<path d="M15.2142 124.129L22.2571 121.836" stroke="#FFA234" stroke-width="0.5" stroke-miterlimit="10"/>
<path d="M17.0073 129.286L23.8838 126.569" stroke="#FFA234" stroke-width="0.5" stroke-miterlimit="10"/>
<path d="M19.1332 134.314L25.8248 131.171" stroke="#FFA234" stroke-width="0.5" stroke-miterlimit="10"/>
<path d="M21.5547 139.194L28.043 135.645" stroke="#FFA234" stroke-width="0.5" stroke-miterlimit="10"/>
<path d="M24.2904 143.926L30.5384 139.97" stroke="#FFA234" stroke-width="0.5" stroke-miterlimit="10"/>
<path d="M27.322 148.473L33.2927 144.129" stroke="#FFA234" stroke-width="0.5" stroke-miterlimit="10"/>
<path d="M30.6124 152.817L36.3058 148.104" stroke="#FFA234" stroke-width="0.5" stroke-miterlimit="10"/>
<path d="M34.1801 156.958L39.5777 151.893" stroke="#FFA234" stroke-width="0.5" stroke-miterlimit="10"/>
<path d="M38.0063 160.858L43.0713 155.461" stroke="#FFA234" stroke-width="0.5" stroke-miterlimit="10"/>
<path d="M42.0547 164.5L46.7684 158.807" stroke="#FFA234" stroke-width="0.5" stroke-miterlimit="10"/>
<path d="M46.3431 167.883L50.6871 161.912" stroke="#FFA234" stroke-width="0.5" stroke-miterlimit="10"/>
<path d="M50.8167 171.007L54.791 164.759" stroke="#FFA234" stroke-width="0.5" stroke-miterlimit="10"/>
<path d="M55.4934 173.835L59.061 167.347" stroke="#FFA234" stroke-width="0.5" stroke-miterlimit="10"/>
<path d="M60.3364 176.349L63.4789 169.657" stroke="#FFA234" stroke-width="0.5" stroke-miterlimit="10"/>
<path d="M65.309 178.567L68.0448 171.691" stroke="#FFA234" stroke-width="0.5" stroke-miterlimit="10"/>
<path d="M70.4293 180.471L72.7215 173.447" stroke="#FFA234" stroke-width="0.5" stroke-miterlimit="10"/>
<path d="M75.6606 182.042L77.4907 174.889" stroke="#FFA234" stroke-width="0.5" stroke-miterlimit="10"/>
<path d="M80.9659 183.299L82.3523 176.035" stroke="#FFA234" stroke-width="0.5" stroke-miterlimit="10"/>
<path d="M86.3635 184.205L87.2878 176.867" stroke="#FFA234" stroke-width="0.5" stroke-miterlimit="10"/>
<path d="M91.7797 184.778L92.2418 177.403" stroke="#FFA234" stroke-width="0.5" stroke-miterlimit="10"/>
<path d="M97.2328 185V177.606" stroke="#FFA234" stroke-width="0.5" stroke-miterlimit="10"/>
<path d="M102.704 184.889L102.224 177.514" stroke="#9945FF" stroke-width="0.5" stroke-miterlimit="10"/>
<path d="M108.139 184.427L107.215 177.088" stroke="#9945FF" stroke-width="0.5" stroke-miterlimit="10"/>
<path d="M113.537 183.632L112.15 176.368" stroke="#9945FF" stroke-width="0.5" stroke-miterlimit="10"/>
<path d="M118.879 182.486L117.03 175.332" stroke="#9945FF" stroke-width="0.5" stroke-miterlimit="10"/>
<path d="M124.129 181.026L121.836 173.983" stroke="#9945FF" stroke-width="0.5" stroke-miterlimit="10"/>
<path d="M129.286 179.233L126.569 172.356" stroke="#9945FF" stroke-width="0.5" stroke-miterlimit="10"/>
<path d="M134.314 177.107L131.171 170.415" stroke="#9945FF" stroke-width="0.5" stroke-miterlimit="10"/>
<path d="M139.194 174.685L135.645 168.197" stroke="#9945FF" stroke-width="0.5" stroke-miterlimit="10"/>
<path d="M143.926 171.95L139.97 165.702" stroke="#9945FF" stroke-width="0.5" stroke-miterlimit="10"/>
<path d="M148.474 168.918L144.13 162.947" stroke="#9945FF" stroke-width="0.5" stroke-miterlimit="10"/>
<path d="M152.818 165.628L148.104 159.934" stroke="#9945FF" stroke-width="0.5" stroke-miterlimit="10"/>
<path d="M156.958 162.06L151.893 156.662" stroke="#9945FF" stroke-width="0.5" stroke-miterlimit="10"/>
<path d="M160.84 158.234L155.461 153.169" stroke="#9945FF" stroke-width="0.5" stroke-miterlimit="10"/>
<path d="M164.5 154.185L158.807 149.472" stroke="#9945FF" stroke-width="0.5" stroke-miterlimit="10"/>
<path d="M167.883 149.897L161.912 145.553" stroke="#9945FF" stroke-width="0.5" stroke-miterlimit="10"/>
<path d="M171.007 145.423L164.759 141.449" stroke="#9945FF" stroke-width="0.5" stroke-miterlimit="10"/>
<path d="M173.835 140.747L167.347 137.179" stroke="#9945FF" stroke-width="0.5" stroke-miterlimit="10"/>
<path d="M176.349 135.904L169.657 132.761" stroke="#9945FF" stroke-width="0.5" stroke-miterlimit="10"/>
<path d="M178.567 130.931L171.691 128.195" stroke="#9945FF" stroke-width="0.5" stroke-miterlimit="10"/>
<path d="M180.471 125.811L173.447 123.519" stroke="#9945FF" stroke-width="0.5" stroke-miterlimit="10"/>
<path d="M182.043 120.579L174.889 118.749" stroke="#9945FF" stroke-width="0.5" stroke-miterlimit="10"/>
<path d="M183.3 115.274L176.035 113.888" stroke="#9945FF" stroke-width="0.5" stroke-miterlimit="10"/>
<path d="M184.205 109.877L176.867 108.952" stroke="#9945FF" stroke-width="0.5" stroke-miterlimit="10"/>
<path d="M184.778 104.46L177.403 103.998" stroke="#9945FF" stroke-width="0.5" stroke-miterlimit="10"/>
<path d="M184.889 93.5357L177.514 94.0163" stroke="#14F195" stroke-width="0.5" stroke-miterlimit="10"/>
<path d="M184.427 88.1011L177.089 89.0253" stroke="#14F195" stroke-width="0.5" stroke-miterlimit="10"/>
<path d="M183.632 82.7034L176.368 84.0898" stroke="#14F195" stroke-width="0.5" stroke-miterlimit="10"/>
<path d="M182.486 77.3612L175.332 79.2097" stroke="#14F195" stroke-width="0.5" stroke-miterlimit="10"/>
<path d="M181.026 72.1114L173.983 74.4036" stroke="#14F195" stroke-width="0.5" stroke-miterlimit="10"/>
<path d="M179.233 66.9541L172.356 69.6714" stroke="#14F195" stroke-width="0.5" stroke-miterlimit="10"/>
<path d="M177.107 61.9261L170.415 65.0686" stroke="#14F195" stroke-width="0.5" stroke-miterlimit="10"/>
<path d="M174.685 57.0461L168.197 60.5952" stroke="#14F195" stroke-width="0.5" stroke-miterlimit="10"/>
<path d="M171.95 52.3139L165.702 56.2697" stroke="#14F195" stroke-width="0.5" stroke-miterlimit="10"/>
<path d="M168.918 47.7665L162.947 52.1105" stroke="#14F195" stroke-width="0.5" stroke-miterlimit="10"/>
<path d="M165.628 43.4225L159.934 48.1362" stroke="#14F195" stroke-width="0.5" stroke-miterlimit="10"/>
<path d="M162.06 39.2819L156.662 44.3468" stroke="#14F195" stroke-width="0.5" stroke-miterlimit="10"/>
<path d="M158.234 35.4L153.169 40.7791" stroke="#14F195" stroke-width="0.5" stroke-miterlimit="10"/>
<path d="M154.185 31.7399L149.472 37.4333" stroke="#14F195" stroke-width="0.5" stroke-miterlimit="10"/>
<path d="M149.897 28.3571L145.553 34.3278" stroke="#14F195" stroke-width="0.5" stroke-miterlimit="10"/>
<path d="M145.424 25.2332L141.449 31.4812" stroke="#14F195" stroke-width="0.5" stroke-miterlimit="10"/>
<path d="M140.747 22.4049L137.179 28.8932" stroke="#14F195" stroke-width="0.5" stroke-miterlimit="10"/>
<path d="M135.904 19.891L132.761 26.5826" stroke="#14F195" stroke-width="0.5" stroke-miterlimit="10"/>
<path d="M130.931 17.6728L128.195 24.5492" stroke="#14F195" stroke-width="0.5" stroke-miterlimit="10"/>
<path d="M125.811 15.7688L123.519 22.7931" stroke="#14F195" stroke-width="0.5" stroke-miterlimit="10"/>
<path d="M120.579 14.1975L118.749 21.3513" stroke="#14F195" stroke-width="0.5" stroke-miterlimit="10"/>
<path d="M115.274 12.9406L113.888 20.2052" stroke="#14F195" stroke-width="0.5" stroke-miterlimit="10"/>
<path d="M109.877 12.0348L108.952 19.3734" stroke="#14F195" stroke-width="0.5" stroke-miterlimit="10"/>
<path d="M104.46 11.4617L103.998 18.8373" stroke="#14F195" stroke-width="0.5" stroke-miterlimit="10"/>
<path d="M99.0073 11.2399V26.028" stroke="#14F195" stroke-miterlimit="10"/>
<path d="M99.0073 170V184.788" stroke="#FFA234" stroke-miterlimit="10"/>
<path d="M185 99.0073H170.212" stroke="#9945FF" stroke-miterlimit="10"/>
<path d="M25.7881 99.0073H11" stroke="#FF4646" stroke-miterlimit="10"/>
<circle cx="98" cy="98" r="66" fill="#151726"/>
<path d="M80.821 90V79.0909H84.5071C85.3594 79.0909 86.0589 79.2365 86.6058 79.5277C87.1527 79.8153 87.5575 80.2113 87.8203 80.7156C88.0831 81.2198 88.2145 81.7933 88.2145 82.4361C88.2145 83.0788 88.0831 83.6488 87.8203 84.146C87.5575 84.6431 87.1545 85.0337 86.6112 85.3178C86.0678 85.5984 85.3736 85.7386 84.5284 85.7386H81.5455V84.5455H84.4858C85.0682 84.5455 85.5369 84.4602 85.892 84.2898C86.2507 84.1193 86.5099 83.8778 86.6697 83.5653C86.8331 83.2493 86.9148 82.8729 86.9148 82.4361C86.9148 81.9993 86.8331 81.6175 86.6697 81.2908C86.5064 80.9641 86.2454 80.712 85.8867 80.5344C85.5281 80.3533 85.054 80.2628 84.4645 80.2628H82.142V90H80.821ZM85.956 85.0994L88.6406 90H87.1065L84.4645 85.0994H85.956ZM92.653 90.1918C92.1345 90.1918 91.664 90.0941 91.2414 89.8988C90.8188 89.6999 90.4832 89.4141 90.2346 89.0412C89.9861 88.6648 89.8618 88.2102 89.8618 87.6776C89.8618 87.2088 89.9541 86.8288 90.1388 86.5376C90.3234 86.2429 90.5702 86.0121 90.8792 85.8452C91.1881 85.6783 91.529 85.554 91.9019 85.4723C92.2783 85.3871 92.6565 85.3196 93.0365 85.2699C93.5336 85.206 93.9367 85.158 94.2457 85.1261C94.5582 85.0906 94.7854 85.032 94.9275 84.9503C95.0731 84.8686 95.1459 84.7266 95.1459 84.5241V84.4815C95.1459 83.956 95.002 83.5476 94.7144 83.2564C94.4303 82.9652 93.9988 82.8196 93.42 82.8196C92.8199 82.8196 92.3493 82.951 92.0084 83.2138C91.6675 83.4766 91.4278 83.7571 91.2893 84.0554L90.0961 83.6293C90.3092 83.1321 90.5933 82.745 90.9484 82.468C91.3071 82.1875 91.6977 81.9922 92.1203 81.8821C92.5464 81.7685 92.9655 81.7116 93.3774 81.7116C93.6402 81.7116 93.942 81.7436 94.2829 81.8075C94.6274 81.8679 94.9594 81.994 95.279 82.1857C95.6022 82.3775 95.8703 82.6669 96.0834 83.054C96.2964 83.4411 96.403 83.9595 96.403 84.6094V90H95.1459V88.892H95.0819C94.9967 89.0696 94.8547 89.2596 94.6558 89.462C94.4569 89.6644 94.1924 89.8366 93.8621 89.9787C93.5319 90.1207 93.1288 90.1918 92.653 90.1918ZM92.8447 89.0625C93.3419 89.0625 93.7609 88.9648 94.1018 88.7695C94.4463 88.5742 94.7055 88.3221 94.8795 88.0131C95.0571 87.7042 95.1459 87.3793 95.1459 87.0384V85.8878C95.0926 85.9517 94.9754 86.0103 94.7943 86.0636C94.6167 86.1133 94.4108 86.1577 94.1764 86.1967C93.9456 86.2322 93.7201 86.2642 93.4999 86.2926C93.2833 86.3175 93.1075 86.3388 92.9726 86.3565C92.6459 86.3991 92.3405 86.4684 92.0564 86.5643C91.7758 86.6566 91.5486 86.7969 91.3746 86.9851C91.2041 87.1697 91.1189 87.4219 91.1189 87.7415C91.1189 88.1783 91.2805 88.5085 91.6036 88.7322C91.9303 88.9524 92.344 89.0625 92.8447 89.0625ZM102.256 81.8182V82.8835H98.0156V81.8182H102.256ZM99.2514 79.858H100.509V87.6562C100.509 88.0114 100.56 88.2777 100.663 88.4553C100.77 88.6293 100.904 88.7464 101.068 88.8068C101.235 88.8636 101.411 88.892 101.595 88.892C101.734 88.892 101.847 88.8849 101.936 88.8707C102.025 88.853 102.096 88.8388 102.149 88.8281L102.405 89.9574C102.32 89.9893 102.201 90.0213 102.048 90.0533C101.895 90.0888 101.702 90.1065 101.467 90.1065C101.112 90.1065 100.764 90.0302 100.423 89.8775C100.086 89.7248 99.8054 89.4922 99.5817 89.1797C99.3615 88.8672 99.2514 88.473 99.2514 87.9972V79.858ZM104.147 90V81.8182H105.404V90H104.147ZM104.786 80.4545C104.541 80.4545 104.33 80.3711 104.152 80.2042C103.978 80.0373 103.891 79.8366 103.891 79.6023C103.891 79.3679 103.978 79.1673 104.152 79.0004C104.33 78.8335 104.541 78.75 104.786 78.75C105.031 78.75 105.24 78.8335 105.414 79.0004C105.592 79.1673 105.681 79.3679 105.681 79.6023C105.681 79.8366 105.592 80.0373 105.414 80.2042C105.24 80.3711 105.031 80.4545 104.786 80.4545ZM111.03 90.1705C110.291 90.1705 109.643 89.9947 109.086 89.6431C108.532 89.2915 108.099 88.7997 107.786 88.1676C107.477 87.5355 107.323 86.7969 107.323 85.9517C107.323 85.0994 107.477 84.3555 107.786 83.7198C108.099 83.0842 108.532 82.5906 109.086 82.239C109.643 81.8874 110.291 81.7116 111.03 81.7116C111.769 81.7116 112.415 81.8874 112.969 82.239C113.527 82.5906 113.96 83.0842 114.269 83.7198C114.581 84.3555 114.737 85.0994 114.737 85.9517C114.737 86.7969 114.581 87.5355 114.269 88.1676C113.96 88.7997 113.527 89.2915 112.969 89.6431C112.415 89.9947 111.769 90.1705 111.03 90.1705ZM111.03 89.0412C111.591 89.0412 112.053 88.8974 112.415 88.6097C112.777 88.3221 113.045 87.9439 113.219 87.4751C113.393 87.0064 113.48 86.4986 113.48 85.9517C113.48 85.4048 113.393 84.8952 113.219 84.4229C113.045 83.9506 112.777 83.5689 112.415 83.2777C112.053 82.9865 111.591 82.8409 111.03 82.8409C110.469 82.8409 110.007 82.9865 109.645 83.2777C109.283 83.5689 109.015 83.9506 108.841 84.4229C108.667 84.8952 108.58 85.4048 108.58 85.9517C108.58 86.4986 108.667 87.0064 108.841 87.4751C109.015 87.9439 109.283 88.3221 109.645 88.6097C110.007 88.8974 110.469 89.0412 111.03 89.0412Z" fill="#9945FF"/>
<path d="M76.0021 118.249C74.9496 118.249 74.0462 117.983 73.2919 117.45C72.5419 116.913 71.9645 116.14 71.5597 115.13C71.1591 114.116 70.9588 112.895 70.9588 111.467C70.9631 110.04 71.1655 108.825 71.5661 107.824C71.9709 106.818 72.5483 106.051 73.2983 105.523C74.0526 104.994 74.9538 104.73 76.0021 104.73C77.0504 104.73 77.9517 104.994 78.706 105.523C79.4602 106.051 80.0376 106.818 80.4382 107.824C80.843 108.83 81.0455 110.044 81.0455 111.467C81.0455 112.899 80.843 114.122 80.4382 115.136C80.0376 116.146 79.4602 116.918 78.706 117.45C77.956 117.983 77.0547 118.249 76.0021 118.249ZM76.0021 116.249C76.8203 116.249 77.4659 115.846 77.9389 115.04C78.4162 114.231 78.6548 113.04 78.6548 111.467C78.6548 110.428 78.5462 109.554 78.3288 108.847C78.1115 108.139 77.8047 107.607 77.4084 107.249C77.0121 106.886 76.5433 106.705 76.0021 106.705C75.1882 106.705 74.5447 107.11 74.0717 107.92C73.5987 108.725 73.3601 109.908 73.3558 111.467C73.3516 112.511 73.456 113.389 73.669 114.101C73.8864 114.812 74.1932 115.349 74.5895 115.712C74.9858 116.07 75.4567 116.249 76.0021 116.249ZM84.1104 118.141C83.7227 118.141 83.3903 118.004 83.1133 117.732C82.8363 117.459 82.6999 117.126 82.7042 116.734C82.6999 116.351 82.8363 116.023 83.1133 115.75C83.3903 115.477 83.7227 115.341 84.1104 115.341C84.4854 115.341 84.8114 115.477 85.0884 115.75C85.3697 116.023 85.5124 116.351 85.5167 116.734C85.5124 116.994 85.4442 117.231 85.3121 117.444C85.1843 117.657 85.0138 117.827 84.8008 117.955C84.592 118.079 84.3619 118.141 84.1104 118.141ZM92.2092 118.249C91.1566 118.249 90.2532 117.983 89.4989 117.45C88.7489 116.913 88.1715 116.14 87.7667 115.13C87.3661 114.116 87.1658 112.895 87.1658 111.467C87.1701 110.04 87.3725 108.825 87.7731 107.824C88.1779 106.818 88.7553 106.051 89.5053 105.523C90.2596 104.994 91.1609 104.73 92.2092 104.73C93.2575 104.73 94.1587 104.994 94.913 105.523C95.6673 106.051 96.2447 106.818 96.6452 107.824C97.0501 108.83 97.2525 110.044 97.2525 111.467C97.2525 112.899 97.0501 114.122 96.6452 115.136C96.2447 116.146 95.6673 116.918 94.913 117.45C94.163 117.983 93.2617 118.249 92.2092 118.249ZM92.2092 116.249C93.0273 116.249 93.6729 115.846 94.146 115.04C94.6232 114.231 94.8619 113.04 94.8619 111.467C94.8619 110.428 94.7532 109.554 94.5359 108.847C94.3185 108.139 94.0117 107.607 93.6154 107.249C93.2191 106.886 92.7504 106.705 92.2092 106.705C91.3952 106.705 90.7518 107.11 90.2788 107.92C89.8058 108.725 89.5671 109.908 89.5629 111.467C89.5586 112.511 89.663 113.389 89.8761 114.101C90.0934 114.812 90.4002 115.349 90.7965 115.712C91.1928 116.07 91.6637 116.249 92.2092 116.249ZM104.215 118.249C103.162 118.249 102.259 117.983 101.505 117.45C100.755 116.913 100.177 116.14 99.7725 115.13C99.372 114.116 99.1717 112.895 99.1717 111.467C99.176 110.04 99.3784 108.825 99.7789 107.824C100.184 106.818 100.761 106.051 101.511 105.523C102.265 104.994 103.167 104.73 104.215 104.73C105.263 104.73 106.165 104.994 106.919 105.523C107.673 106.051 108.251 106.818 108.651 107.824C109.056 108.83 109.258 110.044 109.258 111.467C109.258 112.899 109.056 114.122 108.651 115.136C108.251 116.146 107.673 116.918 106.919 117.45C106.169 117.983 105.268 118.249 104.215 118.249ZM104.215 116.249C105.033 116.249 105.679 115.846 106.152 115.04C106.629 114.231 106.868 113.04 106.868 111.467C106.868 110.428 106.759 109.554 106.542 108.847C106.324 108.139 106.018 107.607 105.621 107.249C105.225 106.886 104.756 106.705 104.215 106.705C103.401 106.705 102.758 107.11 102.285 107.92C101.812 108.725 101.573 109.908 101.569 111.467C101.564 112.511 101.669 113.389 101.882 114.101C102.099 114.812 102.406 115.349 102.802 115.712C103.199 116.07 103.67 116.249 104.215 116.249ZM118.381 115.545V114.855C118.381 114.348 118.488 113.881 118.701 113.455C118.918 113.029 119.234 112.686 119.647 112.426C120.06 112.166 120.561 112.036 121.149 112.036C121.754 112.036 122.261 112.166 122.67 112.426C123.08 112.682 123.388 113.023 123.597 113.449C123.81 113.875 123.917 114.344 123.917 114.855V115.545C123.917 116.053 123.81 116.519 123.597 116.945C123.384 117.371 123.071 117.714 122.658 117.974C122.249 118.234 121.746 118.364 121.149 118.364C120.553 118.364 120.048 118.234 119.634 117.974C119.221 117.714 118.908 117.371 118.695 116.945C118.486 116.519 118.381 116.053 118.381 115.545ZM120.05 114.855V115.545C120.05 115.882 120.131 116.191 120.293 116.472C120.455 116.754 120.74 116.894 121.149 116.894C121.563 116.894 121.846 116.756 121.999 116.479C122.157 116.197 122.236 115.886 122.236 115.545V114.855C122.236 114.514 122.161 114.203 122.012 113.922C121.863 113.636 121.575 113.494 121.149 113.494C120.749 113.494 120.465 113.636 120.299 113.922C120.133 114.203 120.05 114.514 120.05 114.855ZM111.727 108.054V107.364C111.727 106.852 111.836 106.384 112.053 105.957C112.271 105.531 112.586 105.19 112.999 104.935C113.413 104.675 113.913 104.545 114.501 104.545C115.102 104.545 115.607 104.675 116.016 104.935C116.43 105.19 116.741 105.531 116.95 105.957C117.158 106.384 117.263 106.852 117.263 107.364V108.054C117.263 108.565 117.156 109.034 116.943 109.46C116.734 109.882 116.423 110.221 116.01 110.477C115.597 110.732 115.094 110.86 114.501 110.86C113.901 110.86 113.393 110.732 112.98 110.477C112.571 110.221 112.26 109.88 112.047 109.454C111.834 109.028 111.727 108.561 111.727 108.054ZM113.408 107.364V108.054C113.408 108.395 113.487 108.706 113.645 108.987C113.807 109.264 114.092 109.403 114.501 109.403C114.911 109.403 115.192 109.264 115.345 108.987C115.503 108.706 115.582 108.395 115.582 108.054V107.364C115.582 107.023 115.507 106.712 115.358 106.43C115.209 106.145 114.923 106.002 114.501 106.002C114.097 106.002 113.813 106.145 113.651 106.43C113.489 106.716 113.408 107.027 113.408 107.364ZM112.456 118L121.456 104.909H123.054L114.054 118H112.456Z" fill="#14F195"/>
<defs>
<linearGradient id="paint0_linear_80_5" x1="30" y1="98" x2="166" y2="98" gradientUnits="userSpaceOnUse">
<stop stop-color="#9945FF"/>
<stop offset="1" stop-color="#14F195"/>
</linearGradient>
<linearGradient id="paint1_linear_80_5" x1="0" y1="98" x2="196" y2="98" gradientUnits="userSpaceOnUse">
<stop stop-color="#9945FF"/>
<stop offset="1" stop-color="#14F195"/>
</linearGradient>
</defs>
</svg>
